<?xml version="1.0" encoding="UTF-8" standalone="no"?>
<!DOCTYPE svg PUBLIC "-//W3C//DTD SVG 1.1//EN"
 "http://www.w3.org/Graphics/SVG/1.1/DTD/svg11.dtd">
<!-- Generated by graphviz version 2.38.0 (20140413.2041)
 -->
<!-- Title: controllers_diagram Pages: 1 -->
<svg width="600pt" height="521pt"
 viewBox="0.00 0.00 599.72 521.00" xmlns="http://www.w3.org/2000/svg" xmlns:xlink="http://www.w3.org/1999/xlink">
<g id="graph0" class="graph" transform="scale(1 1) rotate(0) translate(228.033 309.5)">
<title>controllers_diagram</title>
<polygon fill="none" stroke="none" points="-228.033,211.5 -228.033,-309.5 371.688,-309.5 371.688,211.5 -228.033,211.5"/>
<!-- _diagram_info -->
<g id="node1" class="node"><title>_diagram_info</title>
<text text-anchor="start" x="168.312" y="-219.1" font-family="Times,serif" font-size="13.00">Controllers diagram</text>
<text text-anchor="start" x="168.312" y="-206.1" font-family="Times,serif" font-size="13.00">Date: Mar 21 2016 &#45; 12:57</text>
<text text-anchor="start" x="168.312" y="-193.1" font-family="Times,serif" font-size="13.00">Migration version: 20160320205126</text>
<text text-anchor="start" x="168.312" y="-180.1" font-family="Times,serif" font-size="13.00">Generated by RailRoady 1.4.2</text>
<text text-anchor="start" x="168.312" y="-167.1" font-family="Times,serif" font-size="13.00">http://railroady.prestonlee.com</text>
</g>
<!-- ApplicationController -->
<g id="node2" class="node"><title>ApplicationController</title>
<path fill="none" stroke="black" d="M92.1792,207C92.1792,207 207.821,207 207.821,207 213.821,207 219.821,201 219.821,195 219.821,195 219.821,127 219.821,127 219.821,121 213.821,115 207.821,115 207.821,115 92.1792,115 92.1792,115 86.1792,115 80.1792,121 80.1792,127 80.1792,127 80.1792,195 80.1792,195 80.1792,201 86.1792,207 92.1792,207"/>
<text text-anchor="middle" x="150" y="130.2" font-family="Times,serif" font-size="14.00">ApplicationController</text>
<polyline fill="none" stroke="black" points="80.1792,137 219.821,137 "/>
<polyline fill="none" stroke="black" points="80.1792,161 219.821,161 "/>
<polyline fill="none" stroke="black" points="80.1792,185 219.821,185 "/>
<text text-anchor="start" x="88.1792" y="200.2" font-family="Times,serif" font-size="14.00">_layout</text>
</g>
<!-- EpisodesController -->
<g id="node3" class="node"><title>EpisodesController</title>
<path fill="none" stroke="black" d="M-68.0483,-145C-68.0483,-145 32.0483,-145 32.0483,-145 38.0483,-145 44.0483,-151 44.0483,-157 44.0483,-157 44.0483,-293 44.0483,-293 44.0483,-299 38.0483,-305 32.0483,-305 32.0483,-305 -68.0483,-305 -68.0483,-305 -74.0483,-305 -80.0483,-299 -80.0483,-293 -80.0483,-293 -80.0483,-157 -80.0483,-157 -80.0483,-151 -74.0483,-145 -68.0483,-145"/>
<text text-anchor="middle" x="-18" y="-289.8" font-family="Times,serif" font-size="14.00">EpisodesController</text>
<polyline fill="none" stroke="black" points="-80.0483,-283 44.0483,-283 "/>
<text text-anchor="start" x="-72.0483" y="-267.8" font-family="Times,serif" font-size="14.00">create</text>
<text text-anchor="start" x="-72.0483" y="-253.8" font-family="Times,serif" font-size="14.00">new</text>
<text text-anchor="start" x="-72.0483" y="-239.8" font-family="Times,serif" font-size="14.00">show</text>
<polyline fill="none" stroke="black" points="-80.0483,-233 44.0483,-233 "/>
<polyline fill="none" stroke="black" points="-80.0483,-209 44.0483,-209 "/>
<text text-anchor="start" x="-72.0483" y="-193.8" font-family="Times,serif" font-size="14.00">_layout</text>
<text text-anchor="start" x="-72.0483" y="-179.8" font-family="Times,serif" font-size="14.00">episode_params</text>
<text text-anchor="start" x="-72.0483" y="-165.8" font-family="Times,serif" font-size="14.00">find_episode</text>
<text text-anchor="start" x="-72.0483" y="-151.8" font-family="Times,serif" font-size="14.00">find_tvshow</text>
</g>
<!-- MoviesController -->
<g id="node4" class="node"><title>MoviesController</title>
<path fill="none" stroke="black" d="M-51.7725,111C-51.7725,111 39.7725,111 39.7725,111 45.7725,111 51.7725,105 51.7725,99 51.7725,99 51.7725,-93 51.7725,-93 51.7725,-99 45.7725,-105 39.7725,-105 39.7725,-105 -51.7725,-105 -51.7725,-105 -57.7725,-105 -63.7725,-99 -63.7725,-93 -63.7725,-93 -63.7725,99 -63.7725,99 -63.7725,105 -57.7725,111 -51.7725,111"/>
<text text-anchor="middle" x="-6" y="-89.8" font-family="Times,serif" font-size="14.00">MoviesController</text>
<polyline fill="none" stroke="black" points="-63.7725,-83 51.7725,-83 "/>
<text text-anchor="start" x="-55.7725" y="-67.8" font-family="Times,serif" font-size="14.00">create</text>
<text text-anchor="start" x="-55.7725" y="-53.8" font-family="Times,serif" font-size="14.00">destroy</text>
<text text-anchor="start" x="-55.7725" y="-39.8" font-family="Times,serif" font-size="14.00">edit</text>
<text text-anchor="start" x="-55.7725" y="-25.8" font-family="Times,serif" font-size="14.00">index</text>
<text text-anchor="start" x="-55.7725" y="-11.8" font-family="Times,serif" font-size="14.00">new</text>
<text text-anchor="start" x="-55.7725" y="2.2" font-family="Times,serif" font-size="14.00">search</text>
<text text-anchor="start" x="-55.7725" y="16.2" font-family="Times,serif" font-size="14.00">show</text>
<text text-anchor="start" x="-55.7725" y="30.2" font-family="Times,serif" font-size="14.00">update</text>
<polyline fill="none" stroke="black" points="-63.7725,37 51.7725,37 "/>
<polyline fill="none" stroke="black" points="-63.7725,61 51.7725,61 "/>
<text text-anchor="start" x="-55.7725" y="76.2" font-family="Times,serif" font-size="14.00">_layout</text>
<text text-anchor="start" x="-55.7725" y="90.2" font-family="Times,serif" font-size="14.00">movie_params</text>
<text text-anchor="start" x="-55.7725" y="104.2" font-family="Times,serif" font-size="14.00">set_movie</text>
</g>
<!-- TvshowsController -->
<g id="node5" class="node"><title>TvshowsController</title>
<path fill="none" stroke="black" d="M91.9482,79C91.9482,79 192.052,79 192.052,79 198.052,79 204.052,73 204.052,67 204.052,67 204.052,-111 204.052,-111 204.052,-117 198.052,-123 192.052,-123 192.052,-123 91.9482,-123 91.9482,-123 85.9482,-123 79.9482,-117 79.9482,-111 79.9482,-111 79.9482,67 79.9482,67 79.9482,73 85.9482,79 91.9482,79"/>
<text text-anchor="middle" x="142" y="-107.8" font-family="Times,serif" font-size="14.00">TvshowsController</text>
<polyline fill="none" stroke="black" points="79.9482,-101 204.052,-101 "/>
<text text-anchor="start" x="87.9482" y="-85.8" font-family="Times,serif" font-size="14.00">create</text>
<text text-anchor="start" x="87.9482" y="-71.8" font-family="Times,serif" font-size="14.00">destroy</text>
<text text-anchor="start" x="87.9482" y="-57.8" font-family="Times,serif" font-size="14.00">edit</text>
<text text-anchor="start" x="87.9482" y="-43.8" font-family="Times,serif" font-size="14.00">index</text>
<text text-anchor="start" x="87.9482" y="-29.8" font-family="Times,serif" font-size="14.00">new</text>
<text text-anchor="start" x="87.9482" y="-15.8" font-family="Times,serif" font-size="14.00">show</text>
<text text-anchor="start" x="87.9482" y="-1.8" font-family="Times,serif" font-size="14.00">update</text>
<polyline fill="none" stroke="black" points="79.9482,5 204.052,5 "/>
<polyline fill="none" stroke="black" points="79.9482,29 204.052,29 "/>
<text text-anchor="start" x="87.9482" y="44.2" font-family="Times,serif" font-size="14.00">_layout</text>
<text text-anchor="start" x="87.9482" y="58.2" font-family="Times,serif" font-size="14.00">set_tvshow</text>
<text text-anchor="start" x="87.9482" y="72.2" font-family="Times,serif" font-size="14.00">tvshow_params</text>
</g>
<!-- WelcomeController -->
<g id="node6" class="node"><title>WelcomeController</title>
<path fill="none" stroke="black" d="M-212.033,-17C-212.033,-17 -109.967,-17 -109.967,-17 -103.967,-17 -97.9673,-23 -97.9673,-29 -97.9673,-29 -97.9673,-95 -97.9673,-95 -97.9673,-101 -103.967,-107 -109.967,-107 -109.967,-107 -212.033,-107 -212.033,-107 -218.033,-107 -224.033,-101 -224.033,-95 -224.033,-95 -224.033,-29 -224.033,-29 -224.033,-23 -218.033,-17 -212.033,-17"/>
<text text-anchor="middle" x="-161" y="-91.8" font-family="Times,serif" font-size="14.00">WelcomeController</text>
<polyline fill="none" stroke="black" points="-224.033,-85 -97.9673,-85 "/>
<text text-anchor="start" x="-216.033" y="-69.8" font-family="Times,serif" font-size="14.00">index</text>
<polyline fill="none" stroke="black" points="-224.033,-63 -97.9673,-63 "/>
<polyline fill="none" stroke="black" points="-224.033,-39 -97.9673,-39 "/>
<text text-anchor="start" x="-216.033" y="-23.8" font-family="Times,serif" font-size="14.00">_layout</text>
</g>
</g>
</svg>
