<?xml version="1.0" encoding="UTF-8" standalone="no"?>
<!DOCTYPE svg PUBLIC "-//W3C//DTD SVG 1.1//EN"
 "http://www.w3.org/Graphics/SVG/1.1/DTD/svg11.dtd">
<!-- Generated by graphviz version 2.38.0 (20140413.2041)
 -->
<!-- Title: models_diagram Pages: 1 -->
<svg width="523pt" height="691pt"
 viewBox="0.00 0.00 523.12 691.00" xmlns="http://www.w3.org/2000/svg" xmlns:xlink="http://www.w3.org/1999/xlink">
<g id="graph0" class="graph" transform="scale(1 1) rotate(0) translate(4 687)">
<title>models_diagram</title>
<polygon fill="none" stroke="none" points="-4,4 -4,-687 519.124,-687 519.124,4 -4,4"/>
<!-- _diagram_info -->
<g id="node1" class="node"><title>_diagram_info</title>
<text text-anchor="start" x="8" y="-598.6" font-family="Times,serif" font-size="13.00">Models diagram</text>
<text text-anchor="start" x="8" y="-585.6" font-family="Times,serif" font-size="13.00">Date: Mar 21 2016 &#45; 12:57</text>
<text text-anchor="start" x="8" y="-572.6" font-family="Times,serif" font-size="13.00">Migration version: 20160320205126</text>
<text text-anchor="start" x="8" y="-559.6" font-family="Times,serif" font-size="13.00">Generated by RailRoady 1.4.2</text>
<text text-anchor="start" x="8" y="-546.6" font-family="Times,serif" font-size="13.00">http://railroady.prestonlee.com</text>
</g>
<!-- Episode -->
<g id="node2" class="node"><title>Episode</title>
<path fill="none" stroke="black" d="M369.231,-0.5C369.231,-0.5 482.145,-0.5 482.145,-0.5 488.145,-0.5 494.145,-6.5 494.145,-12.5 494.145,-12.5 494.145,-158.5 494.145,-158.5 494.145,-164.5 488.145,-170.5 482.145,-170.5 482.145,-170.5 369.231,-170.5 369.231,-170.5 363.231,-170.5 357.231,-164.5 357.231,-158.5 357.231,-158.5 357.231,-12.5 357.231,-12.5 357.231,-6.5 363.231,-0.5 369.231,-0.5"/>
<text text-anchor="middle" x="425.688" y="-155.3" font-family="Times,serif" font-size="14.00">Episode</text>
<polyline fill="none" stroke="black" points="357.231,-148.5 494.145,-148.5 "/>
<text text-anchor="start" x="365.231" y="-133.3" font-family="Times,serif" font-size="14.00">id :INTEGER</text>
<text text-anchor="start" x="365.231" y="-119.3" font-family="Times,serif" font-size="14.00">title :varchar</text>
<text text-anchor="start" x="365.231" y="-105.3" font-family="Times,serif" font-size="14.00">description :text</text>
<text text-anchor="start" x="365.231" y="-91.3" font-family="Times,serif" font-size="14.00">episode_num :integer</text>
<text text-anchor="start" x="365.231" y="-77.3" font-family="Times,serif" font-size="14.00">season_num :integer</text>
<text text-anchor="start" x="365.231" y="-63.3" font-family="Times,serif" font-size="14.00">air_date :date</text>
<text text-anchor="start" x="365.231" y="-49.3" font-family="Times,serif" font-size="14.00">rating :varchar</text>
<text text-anchor="start" x="365.231" y="-35.3" font-family="Times,serif" font-size="14.00">tvshow_id :integer</text>
<text text-anchor="start" x="365.231" y="-21.3" font-family="Times,serif" font-size="14.00">created_at :datetime</text>
<text text-anchor="start" x="365.231" y="-7.3" font-family="Times,serif" font-size="14.00">updated_at :datetime</text>
</g>
<!-- Movie -->
<g id="node3" class="node"><title>Movie</title>
<path fill="none" stroke="black" d="M151.251,-207.5C151.251,-207.5 306.124,-207.5 306.124,-207.5 312.124,-207.5 318.124,-213.5 318.124,-219.5 318.124,-219.5 318.124,-421.5 318.124,-421.5 318.124,-427.5 312.124,-433.5 306.124,-433.5 306.124,-433.5 151.251,-433.5 151.251,-433.5 145.251,-433.5 139.251,-427.5 139.251,-421.5 139.251,-421.5 139.251,-219.5 139.251,-219.5 139.251,-213.5 145.251,-207.5 151.251,-207.5"/>
<text text-anchor="middle" x="228.688" y="-418.3" font-family="Times,serif" font-size="14.00">Movie</text>
<polyline fill="none" stroke="black" points="139.251,-411.5 318.124,-411.5 "/>
<text text-anchor="start" x="147.251" y="-396.3" font-family="Times,serif" font-size="14.00">id :INTEGER</text>
<text text-anchor="start" x="147.251" y="-382.3" font-family="Times,serif" font-size="14.00">title :varchar</text>
<text text-anchor="start" x="147.251" y="-368.3" font-family="Times,serif" font-size="14.00">director :varchar</text>
<text text-anchor="start" x="147.251" y="-354.3" font-family="Times,serif" font-size="14.00">run_time :varchar</text>
<text text-anchor="start" x="147.251" y="-340.3" font-family="Times,serif" font-size="14.00">description :text</text>
<text text-anchor="start" x="147.251" y="-326.3" font-family="Times,serif" font-size="14.00">rating :varchar</text>
<text text-anchor="start" x="147.251" y="-312.3" font-family="Times,serif" font-size="14.00">genre :varchar</text>
<text text-anchor="start" x="147.251" y="-298.3" font-family="Times,serif" font-size="14.00">created_at :datetime</text>
<text text-anchor="start" x="147.251" y="-284.3" font-family="Times,serif" font-size="14.00">updated_at :datetime</text>
<text text-anchor="start" x="147.251" y="-270.3" font-family="Times,serif" font-size="14.00">user_id :integer</text>
<text text-anchor="start" x="147.251" y="-256.3" font-family="Times,serif" font-size="14.00">image_file_name :varchar</text>
<text text-anchor="start" x="147.251" y="-242.3" font-family="Times,serif" font-size="14.00">image_content_type :varchar</text>
<text text-anchor="start" x="147.251" y="-228.3" font-family="Times,serif" font-size="14.00">image_file_size :integer</text>
<text text-anchor="start" x="147.251" y="-214.3" font-family="Times,serif" font-size="14.00">image_updated_at :datetime</text>
</g>
<!-- Tvshow -->
<g id="node4" class="node"><title>Tvshow</title>
<path fill="none" stroke="black" d="M348.251,-235.5C348.251,-235.5 503.124,-235.5 503.124,-235.5 509.124,-235.5 515.124,-241.5 515.124,-247.5 515.124,-247.5 515.124,-393.5 515.124,-393.5 515.124,-399.5 509.124,-405.5 503.124,-405.5 503.124,-405.5 348.251,-405.5 348.251,-405.5 342.251,-405.5 336.251,-399.5 336.251,-393.5 336.251,-393.5 336.251,-247.5 336.251,-247.5 336.251,-241.5 342.251,-235.5 348.251,-235.5"/>
<text text-anchor="middle" x="425.688" y="-390.3" font-family="Times,serif" font-size="14.00">Tvshow</text>
<polyline fill="none" stroke="black" points="336.251,-383.5 515.124,-383.5 "/>
<text text-anchor="start" x="344.251" y="-368.3" font-family="Times,serif" font-size="14.00">id :INTEGER</text>
<text text-anchor="start" x="344.251" y="-354.3" font-family="Times,serif" font-size="14.00">name :varchar</text>
<text text-anchor="start" x="344.251" y="-340.3" font-family="Times,serif" font-size="14.00">air_date :varchar</text>
<text text-anchor="start" x="344.251" y="-326.3" font-family="Times,serif" font-size="14.00">run_time :varchar</text>
<text text-anchor="start" x="344.251" y="-312.3" font-family="Times,serif" font-size="14.00">created_at :datetime</text>
<text text-anchor="start" x="344.251" y="-298.3" font-family="Times,serif" font-size="14.00">updated_at :datetime</text>
<text text-anchor="start" x="344.251" y="-284.3" font-family="Times,serif" font-size="14.00">image_file_name :varchar</text>
<text text-anchor="start" x="344.251" y="-270.3" font-family="Times,serif" font-size="14.00">image_content_type :varchar</text>
<text text-anchor="start" x="344.251" y="-256.3" font-family="Times,serif" font-size="14.00">image_file_size :integer</text>
<text text-anchor="start" x="344.251" y="-242.3" font-family="Times,serif" font-size="14.00">image_updated_at :datetime</text>
</g>
<!-- Tvshow&#45;&gt;Episode -->
<g id="edge1" class="edge"><title>Tvshow&#45;&gt;Episode</title>
<path fill="none" stroke="#c29887" d="M425.688,-227.196C425.688,-212.101 425.688,-196.438 425.688,-181.283"/>
<ellipse fill="none" stroke="#c29887" cx="425.688" cy="-231.382" rx="4" ry="4"/>
<polygon fill="#c29887" stroke="#c29887" points="425.688,-180.886 430.188,-170.886 425.688,-175.886 425.688,-170.886 425.688,-170.886 425.688,-170.886 425.688,-175.886 421.188,-170.886 425.688,-180.886 425.688,-180.886"/>
</g>
<!-- User -->
<g id="node5" class="node"><title>User</title>
<path fill="none" stroke="black" d="M237.41,-470.5C237.41,-470.5 417.966,-470.5 417.966,-470.5 423.966,-470.5 429.966,-476.5 429.966,-482.5 429.966,-482.5 429.966,-670.5 429.966,-670.5 429.966,-676.5 423.966,-682.5 417.966,-682.5 417.966,-682.5 237.41,-682.5 237.41,-682.5 231.41,-682.5 225.41,-676.5 225.41,-670.5 225.41,-670.5 225.41,-482.5 225.41,-482.5 225.41,-476.5 231.41,-470.5 237.41,-470.5"/>
<text text-anchor="middle" x="327.688" y="-667.3" font-family="Times,serif" font-size="14.00">User</text>
<polyline fill="none" stroke="black" points="225.41,-660.5 429.966,-660.5 "/>
<text text-anchor="start" x="233.41" y="-645.3" font-family="Times,serif" font-size="14.00">id :INTEGER</text>
<text text-anchor="start" x="233.41" y="-631.3" font-family="Times,serif" font-size="14.00">email :varchar</text>
<text text-anchor="start" x="233.41" y="-617.3" font-family="Times,serif" font-size="14.00">encrypted_password :varchar</text>
<text text-anchor="start" x="233.41" y="-603.3" font-family="Times,serif" font-size="14.00">reset_password_token :varchar</text>
<text text-anchor="start" x="233.41" y="-589.3" font-family="Times,serif" font-size="14.00">reset_password_sent_at :datetime</text>
<text text-anchor="start" x="233.41" y="-575.3" font-family="Times,serif" font-size="14.00">remember_created_at :datetime</text>
<text text-anchor="start" x="233.41" y="-561.3" font-family="Times,serif" font-size="14.00">sign_in_count :integer</text>
<text text-anchor="start" x="233.41" y="-547.3" font-family="Times,serif" font-size="14.00">current_sign_in_at :datetime</text>
<text text-anchor="start" x="233.41" y="-533.3" font-family="Times,serif" font-size="14.00">last_sign_in_at :datetime</text>
<text text-anchor="start" x="233.41" y="-519.3" font-family="Times,serif" font-size="14.00">current_sign_in_ip :varchar</text>
<text text-anchor="start" x="233.41" y="-505.3" font-family="Times,serif" font-size="14.00">last_sign_in_ip :varchar</text>
<text text-anchor="start" x="233.41" y="-491.3" font-family="Times,serif" font-size="14.00">created_at :datetime</text>
<text text-anchor="start" x="233.41" y="-477.3" font-family="Times,serif" font-size="14.00">updated_at :datetime</text>
</g>
<!-- User&#45;&gt;Movie -->
<g id="edge2" class="edge"><title>User&#45;&gt;Movie</title>
<path fill="none" stroke="#57fef4" d="M283.697,-462.636C281.168,-456.146 278.619,-449.606 276.077,-443.085"/>
<ellipse fill="none" stroke="#57fef4" cx="285.253" cy="-466.628" rx="4.00001" ry="4.00001"/>
<polygon fill="#57fef4" stroke="#57fef4" points="275.993,-442.87 276.555,-431.919 274.178,-438.212 272.362,-433.553 272.362,-433.553 272.362,-433.553 274.178,-438.212 268.169,-435.187 275.993,-442.87 275.993,-442.87"/>
</g>
<!-- User&#45;&gt;Tvshow -->
<g id="edge3" class="edge"><title>User&#45;&gt;Tvshow</title>
<path fill="none" stroke="#373fa3" d="M371.193,-462.742C377.322,-446.855 383.568,-430.667 389.54,-415.189"/>
<ellipse fill="none" stroke="#373fa3" cx="369.695" cy="-466.623" rx="4.00001" ry="4.00001"/>
<polygon fill="#373fa3" stroke="#373fa3" points="389.62,-414.982 397.418,-407.272 391.42,-410.317 393.219,-405.653 393.219,-405.653 393.219,-405.653 391.42,-410.317 389.021,-404.033 389.62,-414.982 389.62,-414.982"/>
</g>
</g>
</svg>
