<?xml version="1.0" encoding="UTF-8" standalone="no"?>
<!DOCTYPE svg PUBLIC "-//W3C//DTD SVG 1.1//EN"
 "http://www.w3.org/Graphics/SVG/1.1/DTD/svg11.dtd">
<!-- Generated by graphviz version 2.38.0 (20140413.2041)
 -->
<!-- Title: models_diagram Pages: 1 -->
<svg width="344pt" height="225pt"
 viewBox="0.00 0.00 344.29 225.00" xmlns="http://www.w3.org/2000/svg" xmlns:xlink="http://www.w3.org/1999/xlink">
<g id="graph0" class="graph" transform="scale(1 1) rotate(0) translate(4 221)">
<title>models_diagram</title>
<polygon fill="none" stroke="none" points="-4,4 -4,-221 340.29,-221 340.29,4 -4,4"/>
<!-- _diagram_info -->
<g id="node1" class="node"><title>_diagram_info</title>
<text text-anchor="start" x="8" y="-202.6" font-family="Times,serif" font-size="13.00">Models diagram</text>
<text text-anchor="start" x="8" y="-189.6" font-family="Times,serif" font-size="13.00">Date: Mar 21 2016 &#45; 12:57</text>
<text text-anchor="start" x="8" y="-176.6" font-family="Times,serif" font-size="13.00">Migration version: 20160320205126</text>
<text text-anchor="start" x="8" y="-163.6" font-family="Times,serif" font-size="13.00">Generated by RailRoady 1.4.2</text>
<text text-anchor="start" x="8" y="-150.6" font-family="Times,serif" font-size="13.00">http://railroady.prestonlee.com</text>
</g>
<!-- Episode -->
<g id="node2" class="node"><title>Episode</title>
<ellipse fill="none" stroke="black" cx="297.688" cy="-18" rx="38.6955" ry="18"/>
<text text-anchor="middle" x="297.688" y="-13.8" font-family="Times,serif" font-size="14.00">Episode</text>
</g>
<!-- Movie -->
<g id="node3" class="node"><title>Movie</title>
<ellipse fill="none" stroke="black" cx="207.688" cy="-90" rx="33.3925" ry="18"/>
<text text-anchor="middle" x="207.688" y="-85.8" font-family="Times,serif" font-size="14.00">Movie</text>
</g>
<!-- Tvshow -->
<g id="node4" class="node"><title>Tvshow</title>
<ellipse fill="none" stroke="black" cx="297.688" cy="-90" rx="38.7042" ry="18"/>
<text text-anchor="middle" x="297.688" y="-85.8" font-family="Times,serif" font-size="14.00">Tvshow</text>
</g>
<!-- Tvshow&#45;&gt;Episode -->
<g id="edge1" class="edge"><title>Tvshow&#45;&gt;Episode</title>
<path fill="none" stroke="#c51467" d="M297.688,-63.6398C297.688,-58.0629 297.688,-52.1319 297.688,-46.4761"/>
<ellipse fill="none" stroke="#c51467" cx="297.688" cy="-67.6966" rx="4" ry="4"/>
<polygon fill="#c51467" stroke="#c51467" points="297.688,-46.1043 302.188,-36.1043 297.688,-41.1043 297.688,-36.1043 297.688,-36.1043 297.688,-36.1043 297.688,-41.1043 293.188,-36.1044 297.688,-46.1043 297.688,-46.1043"/>
</g>
<!-- User -->
<g id="node5" class="node"><title>User</title>
<ellipse fill="none" stroke="black" cx="252.688" cy="-180.5" rx="27" ry="18"/>
<text text-anchor="middle" x="252.688" y="-176.3" font-family="Times,serif" font-size="14.00">User</text>
</g>
<!-- User&#45;&gt;Movie -->
<g id="edge2" class="edge"><title>User&#45;&gt;Movie</title>
<path fill="none" stroke="#f9cf03" d="M240.807,-156.134C234.593,-143.914 226.978,-128.938 220.617,-116.428"/>
<ellipse fill="none" stroke="#f9cf03" cx="242.621" cy="-159.702" rx="4.00002" ry="4.00002"/>
<polygon fill="#f9cf03" stroke="#f9cf03" points="220.574,-116.343 220.053,-105.389 218.308,-111.886 216.042,-107.429 216.042,-107.429 216.042,-107.429 218.308,-111.886 212.03,-109.469 220.574,-116.343 220.574,-116.343"/>
</g>
<!-- User&#45;&gt;Tvshow -->
<g id="edge3" class="edge"><title>User&#45;&gt;Tvshow</title>
<path fill="none" stroke="#7e2b37" d="M264.756,-155.765C270.842,-143.797 278.234,-129.258 284.472,-116.99"/>
<ellipse fill="none" stroke="#7e2b37" cx="262.754" cy="-159.702" rx="4.00002" ry="4.00002"/>
<polygon fill="#7e2b37" stroke="#7e2b37" points="284.648,-116.645 293.192,-109.77 286.914,-112.188 289.181,-107.731 289.181,-107.731 289.181,-107.731 286.914,-112.188 285.169,-105.691 284.648,-116.645 284.648,-116.645"/>
</g>
</g>
</svg>
